<?xml version="1.0" encoding="iso-8859-1"?>
<!-- Generator: Adobe Illustrator 17.1.0, SVG Export Plug-In . SVG Version: 6.00 Build 0)  -->
<!DOCTYPE svg PUBLIC "-//W3C//DTD SVG 1.1//EN" "http://www.w3.org/Graphics/SVG/1.1/DTD/svg11.dtd">
<svg version="1.1" id="Capa_1" xmlns="http://www.w3.org/2000/svg" xmlns:xlink="http://www.w3.org/1999/xlink" x="0px" y="0px"
	 viewBox="0 0 432.458 432.458" style="enable-background:new 0 0 432.458 432.458;" xml:space="preserve">
<g>
	<path d="M359.979,416.463v-24.254V360.5v-32.042V296.75v-32.292V232.75v-32.042V169v-32.494v-0.298V104.5V72.375V8
		c0-4.418-3.582-8-8-8h-46.917H304H129.042H81.063c-4.418,0-8,3.582-8,8v64.375V104.5v31.708v0.298V169v31.708v32.042v31.708v32.292
		v31.708V360.5v31.708v24.25h-0.5c-4.418,0-8,3.582-8,8s3.582,8,8,8h8.5h79.823H272.24h79.739h7.917c4.418,0,8-3.582,8-8
		C367.896,420.068,364.359,416.508,359.979,416.463z M343.979,384.208H312V368.5h31.979V384.208z M343.979,320.458H312V304.75
		h31.979V320.458z M343.979,256.458H312V240.75h31.979V256.458z M343.979,192.708H312V177h31.979V192.708z M343.979,128.208H312
		V112.5h31.979V128.208z M343.979,64.375h-30.917V16h30.917V64.375z M121.042,16v48.375H89.063V16H121.042z M89.063,177h31.979
		v15.708H89.063V177z M89.063,240.75h31.979v15.708H89.063V240.75z M89.063,304.75h31.979v15.708H89.063V304.75z M89.063,368.5
		h31.979v15.708H89.063V368.5z M89.063,112.5h31.979v15.708H89.063V112.5z M168.885,416.458V368.5h39.677v47.958H168.885z
		 M224.563,416.458V368.5h39.677v47.958H224.563z M280.24,416.458V360.5c0-4.418-3.582-8-8-8H160.885c-4.418,0-8,3.582-8,8v55.958
		H89.063v-16.25h39.979c4.418,0,8-3.582,8-8V360.5c0-4.418-3.582-8-8-8H89.063v-16.042h39.979c4.418,0,8-3.582,8-8V296.75
		c0-4.418-3.582-8-8-8H89.063v-16.292h39.979c4.418,0,8-3.582,8-8V232.75c0-4.418-3.582-8-8-8H89.063v-16.042h39.979
		c4.418,0,8-3.582,8-8V169c0-4.418-3.582-8-8-8H89.063v-16.792h39.979c4.418,0,8-3.582,8-8V104.5c0-4.418-3.582-8-8-8H89.063V80.375
		h39.979c4.418,0,8-3.582,8-8V16h160.021v56.375c0,4.418,3.582,8,8,8h38.917V96.5H304c-4.418,0-8,3.582-8,8v31.708
		c0,4.418,3.582,8,8,8h39.979V161H304c-4.418,0-8,3.582-8,8v31.708c0,4.418,3.582,8,8,8h39.979v16.042H304c-4.418,0-8,3.582-8,8
		v31.708c0,4.418,3.582,8,8,8h39.979v16.292H304c-4.418,0-8,3.582-8,8v31.708c0,4.418,3.582,8,8,8h39.979V352.5H304
		c-4.418,0-8,3.582-8,8v31.708c0,4.418,3.582,8,8,8h39.979v16.25H280.24z"/>
	<path d="M272.24,288.75H160.885c-4.418,0-8,3.582-8,8v31.708c0,4.418,3.582,8,8,8H272.24c4.418,0,8-3.582,8-8V296.75
		C280.24,292.332,276.658,288.75,272.24,288.75z M264.24,320.458h-95.354V304.75h95.354V320.458z"/>
	<path d="M272.24,224.75H160.885c-4.418,0-8,3.582-8,8v31.708c0,4.418,3.582,8,8,8H272.24c4.418,0,8-3.582,8-8V232.75
		C280.24,228.332,276.658,224.75,272.24,224.75z M264.24,256.458h-95.354V240.75h95.354V256.458z"/>
	<path d="M272.24,161H160.885c-4.418,0-8,3.582-8,8v31.708c0,4.418,3.582,8,8,8H272.24c4.418,0,8-3.582,8-8V169
		C280.24,164.582,276.658,161,272.24,161z M264.24,192.708h-95.354V177h95.354V192.708z"/>
	<path d="M272.24,96.833H160.885c-4.418,0-8,3.582-8,8v31.708c0,4.418,3.582,8,8,8H272.24c4.418,0,8-3.582,8-8v-31.708
		C280.24,100.415,276.658,96.833,272.24,96.833z M264.24,128.542h-95.354v-15.708h95.354V128.542z"/>
	<path d="M272.24,32.667H160.885c-4.418,0-8,3.582-8,8v31.708c0,4.418,3.582,8,8,8H272.24c4.418,0,8-3.582,8-8V40.667
		C280.24,36.249,276.658,32.667,272.24,32.667z M264.24,64.375h-95.354V48.667h95.354V64.375z"/>
</g>
<g>
</g>
<g>
</g>
<g>
</g>
<g>
</g>
<g>
</g>
<g>
</g>
<g>
</g>
<g>
</g>
<g>
</g>
<g>
</g>
<g>
</g>
<g>
</g>
<g>
</g>
<g>
</g>
<g>
</g>
</svg>
