<svg id="Layer_1" height="512" viewBox="0 0 128 128" width="512" xmlns="http://www.w3.org/2000/svg" data-name="Layer 1"><path d="m113.206 58.173h-12.113a10.731 10.731 0 0 0 -10.686-9.948 10.618 10.618 0 0 0 -4.492.989 13.115 13.115 0 0 0 -23.8 1.383 9.5 9.5 0 0 0 -9.827 7.576h-11.955v-8.917a1.75 1.75 0 0 0 -1.75-1.75h-.833v-12.173a1.75 1.75 0 0 0 -1.75-1.75h-1v-12.643a4.4 4.4 0 0 1 4.4-4.4h18.454a4.393 4.393 0 0 1 4.092 2.823 13.175 13.175 0 0 0 -11.113 12.99 1.75 1.75 0 0 0 1.75 1.75h22.834a1.75 1.75 0 0 0 1.75-1.75 13.179 13.179 0 0 0 -11.592-13.059 7.909 7.909 0 0 0 -7.721-6.25h-18.454a7.9 7.9 0 0 0 -7.9 7.9v12.639h-1a1.75 1.75 0 0 0 -1.75 1.75v12.173h-.833a1.75 1.75 0 0 0 -1.75 1.75v8.917h-11.373a1.75 1.75 0 0 0 -1.75 1.75v8a1.75 1.75 0 0 0 1.75 1.75h2.3l3.141 23.092a15.843 15.843 0 0 0 14.493 13.6l-2.2 6.256a1.751 1.751 0 0 0 1.652 2.331h6.12a1.752 1.752 0 0 0 1.585-1.007l3.528-7.526h37.171l3.528 7.526a1.752 1.752 0 0 0 1.585 1.007h6.12a1.751 1.751 0 0 0 1.652-2.331l-2.2-6.256a15.843 15.843 0 0 0 14.493-13.6l3.138-23.092h2.3a1.75 1.75 0 0 0 1.75-1.75v-8a1.75 1.75 0 0 0 -1.744-1.75zm-39.7-27.566h-19.014a9.668 9.668 0 0 1 19.016 0zm-10.56 23.626a1.749 1.749 0 0 0 2.075-1.27 9.615 9.615 0 0 1 18.42-.676 1.751 1.751 0 0 0 2.7.847 7.155 7.155 0 0 1 4.27-1.409 7.234 7.234 0 0 1 7.182 6.448h-41.687a5.988 5.988 0 0 1 7.04-3.94zm-30.7-17.15h2v10.423h-2zm-2.579 13.923h7.166v7.167h-7.166zm9.523 60.45h-2.537l1.77-5.033h3.126zm49.62 0-2.359-5.033h3.126l1.77 5.033zm15.483-19.163a12.33 12.33 0 0 1 -12.173 10.63h-56.24a12.33 12.33 0 0 1 -12.173-10.63l-3.077-22.62h86.74zm7.163-26.12h-94.912v-4.5h94.912z"/></svg>