<svg id="Layer_1" height="512" viewBox="0 0 128 128" width="512" xmlns="http://www.w3.org/2000/svg" data-name="Layer 1"><path d="m114.745 79.531c0-.006 0-.021-.005-.027l-10.92-19.861v-27.969a4.864 4.864 0 0 0 -1.184-3.16 4.862 4.862 0 0 0 1.184-3.16 4.91 4.91 0 1 0 -9.82 0 4.862 4.862 0 0 0 1.184 3.16 4.856 4.856 0 0 0 -1.107 2.4 101.774 101.774 0 0 0 -30.077-4.15 101.774 101.774 0 0 0 -30.077 4.153 4.856 4.856 0 0 0 -1.107-2.4 4.862 4.862 0 0 0 1.184-3.163 4.91 4.91 0 0 0 -9.82 0 4.862 4.862 0 0 0 1.184 3.16 4.864 4.864 0 0 0 -1.184 3.16v27.969l-10.92 19.857a.31.31 0 0 0 -.01.036 1.737 1.737 0 0 0 -.206.808v17.756a1.751 1.751 0 0 0 1.75 1.75h5.532v5.958a1.75 1.75 0 0 0 1.75 1.75h7.708a1.751 1.751 0 0 0 1.75-1.75v-5.96h64.932v5.958a1.751 1.751 0 0 0 1.75 1.75h7.708a1.75 1.75 0 0 0 1.75-1.75v-5.958h5.532a1.751 1.751 0 0 0 1.75-1.75v-17.75a1.735 1.735 0 0 0 -.211-.817zm-17.245-31.383v-16.474a1.41 1.41 0 0 1 2.82 0v21.6zm1.41-24.2a1.41 1.41 0 1 1 -1.41 1.41 1.412 1.412 0 0 1 1.41-1.414zm-4.91 10.634v12.266h-3.77c0-.019 0-.035 0-.054 0-5.071-5.14-9.2-11.458-9.2s-11.459 4.125-11.459 9.2c0 .019 0 .035.005.054h-6.64c0-.019.005-.035.005-.054 0-5.071-5.141-9.2-11.459-9.2s-11.458 4.125-11.458 9.2v.054h-3.766v-12.266c3.357-1.129 14.24-4.318 30-4.318s26.643 3.189 30 4.318zm-22.971 13.318a2.474 2.474 0 0 1 -.211-1.1c0-3.141 3.571-5.7 7.959-5.7s7.958 2.555 7.958 5.7c0 1.479-.615 3.057-7.958 3.057-5.507-.006-7.231-.893-7.748-1.957zm-29.763-1.1c0-3.141 3.57-5.7 7.958-5.7s7.959 2.555 7.959 5.7c0 1.479-.615 3.057-7.959 3.057s-7.958-1.584-7.958-3.063zm-12.176-22.856a1.41 1.41 0 1 1 -1.41 1.41 1.412 1.412 0 0 1 1.41-1.41zm-1.41 7.73a1.41 1.41 0 0 1 2.82 0v16.474l-2.82 5.129zm5.6 18.674h5.62c2.33 2.99 7.682 3 10.321 3s7.991-.013 10.322-3h8.908c2.331 2.99 7.683 3 10.322 3s7.991-.013 10.321-3h5.618l15.535 28.252h-92.494zm-5.251 53.708h-4.203v-4.208h4.208zm76.14 0h-4.203v-4.208h4.208zm7.282-7.708h-94.907v-14.248h94.912z"/></svg>