<?xml version="1.0" encoding="iso-8859-1"?>
<!-- Generator: Adobe Illustrator 17.1.0, SVG Export Plug-In . SVG Version: 6.00 Build 0)  -->
<!DOCTYPE svg PUBLIC "-//W3C//DTD SVG 1.1//EN" "http://www.w3.org/Graphics/SVG/1.1/DTD/svg11.dtd">
<svg version="1.1" id="Capa_1" xmlns="http://www.w3.org/2000/svg" xmlns:xlink="http://www.w3.org/1999/xlink" x="0px" y="0px"
	 viewBox="0 0 431.5 431.5" style="enable-background:new 0 0 431.5 431.5;" xml:space="preserve">
<g>
	<path d="M63.25,303.609h8.667H127.5h7.333c4.418,0,8-3.582,8-8c0-4.193-3.227-7.627-7.333-7.967v-71.95c0-4.418-3.582-8-8-8H71.917
		c-4.418,0-8,3.582-8,8v71.917H63.25c-4.418,0-8,3.582-8,8C55.25,300.027,58.832,303.609,63.25,303.609z M119.5,223.692v23.958
		H79.917v-23.958H119.5z M79.917,263.65H119.5v23.959H79.917V263.65z"/>
	<path d="M197.656,289.952c-1.49-1.49-3.55-2.34-5.66-2.34c-2.1,0-4.16,0.85-5.65,2.34c-1.49,1.49-2.35,3.55-2.35,5.66
		c0,2.1,0.86,4.17,2.35,5.65c1.48,1.49,3.55,2.35,5.65,2.35c2.11,0,4.17-0.86,5.66-2.35c1.49-1.49,2.34-3.55,2.34-5.65
		C199.996,293.502,199.146,291.442,197.656,289.952z"/>
	<path d="M295.708,303.609h8.667h55.583h7.333c4.418,0,8-3.582,8-8c0-4.193-3.228-7.627-7.333-7.967v-71.95c0-4.418-3.582-8-8-8
		h-55.583c-4.418,0-8,3.582-8,8v71.917h-0.667c-4.418,0-8,3.582-8,8C287.708,300.027,291.29,303.609,295.708,303.609z
		 M351.958,223.692v23.958h-39.583v-23.958H351.958z M312.375,263.65h39.583v23.959h-39.583V263.65z"/>
	<path d="M423.5,368.192h-7.417V197.003l3.66,1.838c2.481,1.246,5.429,1.117,7.79-0.34c2.362-1.457,3.8-4.033,3.8-6.809v-32.135
		c0-3.025-1.707-5.791-4.41-7.149l-35.173-17.665V80.025c0-4.418-3.582-8-8-8h-47.583c-4.418,0-8,3.582-8,8v22.787L219.34,48.159
		c-2.258-1.134-4.919-1.135-7.178-0.001L4.412,152.408C1.708,153.765,0,156.532,0,159.557v32.135c0,2.774,1.438,5.351,3.799,6.808
		c1.284,0.792,2.74,1.192,4.201,1.192c1.226,0,2.456-0.282,3.587-0.85l3.829-1.921v171.271H8c-4.418,0-8,3.582-8,8s3.582,8,8,8
		h415.5c4.418,0,8-3.582,8-8S427.918,368.192,423.5,368.192z M175.917,223.692h79.5v144.5h-79.5V223.692z M271.417,335.442h128.667
		v32.75H271.417V335.442z M344.167,110.359V88.025h31.583v38.684l-31.608-15.874C344.152,110.677,344.167,110.52,344.167,110.359z
		 M16,164.494L215.749,64.259l199.584,100.233v14.23L219.34,80.293c-2.258-1.134-4.919-1.135-7.178-0.001L16,178.727V164.494z
		 M215.749,96.393l184.42,92.618c-0.05,0.363-0.086,0.731-0.086,1.108v129.323H271.417v-103.75c0-4.418-3.582-8-8-8h-95.5
		c-4.418,0-8,3.582-8,8v103.75h-128.5V190.12c0-0.402-0.039-0.793-0.096-1.179L215.749,96.393z M31.417,335.442h128.5v32.75h-128.5
		V335.442z"/>
</g>
<g>
</g>
<g>
</g>
<g>
</g>
<g>
</g>
<g>
</g>
<g>
</g>
<g>
</g>
<g>
</g>
<g>
</g>
<g>
</g>
<g>
</g>
<g>
</g>
<g>
</g>
<g>
</g>
<g>
</g>
</svg>
