<?xml version="1.0" encoding="iso-8859-1"?>
<!-- Generator: Adobe Illustrator 17.1.0, SVG Export Plug-In . SVG Version: 6.00 Build 0)  -->
<!DOCTYPE svg PUBLIC "-//W3C//DTD SVG 1.1//EN" "http://www.w3.org/Graphics/SVG/1.1/DTD/svg11.dtd">
<svg version="1.1" id="Capa_1" xmlns="http://www.w3.org/2000/svg" xmlns:xlink="http://www.w3.org/1999/xlink" x="0px" y="0px"
	 viewBox="0 0 415.25 415.25" style="enable-background:new 0 0 415.25 415.25;" xml:space="preserve">
<g>
	<path d="M111.625,279.25H63.5c-4.418,0-8,3.582-8,8v63.625c0,4.418,3.582,8,8,8h48.125c4.418,0,8-3.582,8-8V287.25
		C119.625,282.832,116.044,279.25,111.625,279.25z M103.625,295.25v15.813H71.5V295.25H103.625z M71.5,342.875v-15.813h32.125
		v15.813H71.5z"/>
	<path d="M303,358.875h48.458c4.418,0,8-3.582,8-8V287.25c0-4.418-3.582-8-8-8H303c-4.418,0-8,3.582-8,8v63.625
		C295,355.293,298.582,358.875,303,358.875z M311,342.875v-15.813h32.458v15.813H311z M343.458,295.25v15.813H311V295.25H343.458z"
		/>
	<path d="M111.625,167.304H63.5c-4.418,0-8,3.582-8,8v63.625c0,4.418,3.582,8,8,8h48.125c4.418,0,8-3.582,8-8v-63.625
		C119.625,170.886,116.044,167.304,111.625,167.304z M103.625,183.304v15.813H71.5v-15.813H103.625z M71.5,230.929v-15.813h32.125
		v15.813H71.5z"/>
	<path d="M247.292,175.304c0-4.418-3.582-8-8-8h-63.333c-4.418,0-8,3.582-8,8v63.625c0,4.418,3.582,8,8,8h63.333
		c4.418,0,8-3.582,8-8V175.304z M231.292,183.304v15.813h-47.333v-15.813H231.292z M183.958,230.929v-15.813h47.333v15.813H183.958z
		"/>
	<path d="M303,246.929h48.458c4.418,0,8-3.582,8-8v-63.625c0-4.418-3.582-8-8-8H303c-4.418,0-8,3.582-8,8v63.625
		C295,243.348,298.582,246.929,303,246.929z M311,230.929v-15.813h32.458v15.813H311z M343.458,183.304v15.813H311v-15.813H343.458z
		"/>
	<path d="M399.958,399.25h-8.333V151.652c0-0.262-0.015-0.521-0.039-0.777h0.206c0.116,0,0.229-0.012,0.344-0.017
		c0.079,0.002,0.156,0.019,0.236,0.019c0.722,0,1.457-0.099,2.186-0.305c4.251-1.205,6.72-5.628,5.515-9.879l-24.75-87.292
		c-0.007-0.024-0.017-0.047-0.024-0.071c-0.05-0.171-0.11-0.338-0.171-0.504c-0.032-0.087-0.061-0.176-0.096-0.261
		c-0.06-0.146-0.128-0.287-0.195-0.429c-0.048-0.101-0.094-0.205-0.146-0.303c-0.059-0.111-0.126-0.218-0.19-0.327
		c-0.071-0.12-0.14-0.242-0.217-0.357c-0.054-0.082-0.115-0.158-0.172-0.238c-0.095-0.132-0.189-0.265-0.292-0.39
		c-0.054-0.066-0.114-0.128-0.17-0.192c-0.112-0.128-0.223-0.257-0.343-0.377c-0.07-0.071-0.146-0.135-0.219-0.203
		c-0.112-0.105-0.223-0.211-0.34-0.31c-0.103-0.085-0.212-0.163-0.319-0.243c-0.094-0.071-0.186-0.146-0.283-0.212
		c-0.138-0.095-0.282-0.179-0.426-0.265c-0.074-0.044-0.145-0.092-0.22-0.134c-0.158-0.088-0.323-0.165-0.487-0.242
		c-0.067-0.031-0.133-0.067-0.201-0.097c-0.157-0.068-0.318-0.126-0.48-0.184c-0.084-0.03-0.166-0.064-0.251-0.092
		c-0.138-0.044-0.279-0.079-0.42-0.116c-0.116-0.031-0.232-0.064-0.349-0.09c-0.113-0.024-0.228-0.041-0.343-0.06
		c-0.151-0.025-0.302-0.052-0.455-0.069c-0.094-0.01-0.19-0.014-0.285-0.021c-0.174-0.013-0.348-0.025-0.524-0.027
		c-0.026,0-0.051-0.004-0.077-0.004h-79.833v-7.488c0-3.161-1.861-6.025-4.749-7.31L210.876,0.69
		c-2.068-0.92-4.428-0.92-6.498-0.002l-72,31.975c-2.89,1.283-4.753,4.149-4.753,7.312v7.608H47.792
		c-0.025,0-0.049,0.004-0.074,0.004c-0.182,0.001-0.361,0.014-0.541,0.027c-0.089,0.007-0.178,0.01-0.266,0.02
		c-0.161,0.018-0.32,0.045-0.479,0.073c-0.107,0.019-0.214,0.033-0.319,0.056c-0.128,0.028-0.253,0.064-0.379,0.098
		c-0.131,0.035-0.262,0.067-0.39,0.108c-0.098,0.032-0.193,0.071-0.289,0.106c-0.148,0.054-0.297,0.106-0.442,0.169
		c-0.084,0.037-0.164,0.08-0.246,0.119c-0.149,0.071-0.299,0.141-0.442,0.22c-0.091,0.05-0.177,0.108-0.266,0.162
		c-0.128,0.078-0.257,0.152-0.38,0.237c-0.112,0.076-0.217,0.161-0.325,0.243c-0.093,0.071-0.189,0.138-0.278,0.213
		c-0.127,0.105-0.247,0.22-0.367,0.334c-0.064,0.06-0.131,0.117-0.193,0.179c-0.125,0.125-0.241,0.26-0.358,0.394
		c-0.052,0.059-0.106,0.115-0.156,0.176c-0.106,0.129-0.203,0.265-0.3,0.401c-0.055,0.076-0.112,0.149-0.164,0.227
		c-0.078,0.117-0.148,0.241-0.221,0.363c-0.063,0.106-0.129,0.211-0.187,0.321c-0.052,0.099-0.098,0.203-0.147,0.304
		c-0.068,0.142-0.136,0.282-0.195,0.428c-0.035,0.085-0.064,0.174-0.095,0.261c-0.061,0.166-0.121,0.333-0.171,0.504
		c-0.007,0.024-0.017,0.047-0.024,0.071l-24.75,87.292c-0.02,0.071-0.031,0.142-0.049,0.212c-0.041,0.16-0.08,0.32-0.111,0.484
		c-0.025,0.13-0.041,0.26-0.06,0.39c-0.017,0.126-0.036,0.25-0.047,0.378c-0.016,0.17-0.021,0.34-0.026,0.509
		c-0.002,0.07-0.011,0.138-0.011,0.208c0,0.024,0.003,0.048,0.004,0.072c0.002,0.183,0.013,0.364,0.027,0.544
		c0.007,0.088,0.01,0.177,0.02,0.265c0.018,0.16,0.045,0.318,0.073,0.477c0.018,0.107,0.034,0.216,0.056,0.322
		c0.027,0.126,0.063,0.249,0.096,0.373c0.035,0.133,0.068,0.267,0.11,0.397c0.03,0.094,0.068,0.186,0.102,0.279
		c0.055,0.152,0.109,0.305,0.173,0.453c0.034,0.078,0.074,0.152,0.11,0.229c0.073,0.155,0.146,0.311,0.229,0.46
		c0.046,0.083,0.099,0.163,0.148,0.244c0.081,0.135,0.161,0.272,0.25,0.402c0.072,0.105,0.152,0.204,0.229,0.305
		c0.075,0.1,0.147,0.202,0.227,0.298c0.102,0.123,0.213,0.238,0.323,0.355c0.064,0.068,0.124,0.139,0.19,0.205
		c0.122,0.122,0.253,0.235,0.383,0.349c0.063,0.055,0.123,0.113,0.188,0.166c0.125,0.102,0.257,0.196,0.388,0.291
		c0.081,0.058,0.158,0.119,0.241,0.175c0.114,0.075,0.233,0.143,0.351,0.213c0.11,0.066,0.219,0.134,0.333,0.194
		c0.096,0.051,0.196,0.095,0.295,0.142c0.145,0.069,0.289,0.139,0.438,0.2c0.082,0.033,0.167,0.061,0.25,0.092
		c0.17,0.063,0.34,0.123,0.515,0.175c0.023,0.007,0.045,0.017,0.068,0.023c0.04,0.011,0.079,0.014,0.119,0.025
		c0.267,0.071,0.54,0.128,0.818,0.172c0.09,0.014,0.179,0.03,0.268,0.041c0.291,0.035,0.586,0.058,0.885,0.061
		c0.032,0,0.064,0.007,0.096,0.007c0.008,0,0.016-0.002,0.024-0.002h0.556V399.25h-8.333c-4.418,0-8,3.582-8,8s3.582,8,8,8h384.667
		c4.418,0,8-3.582,8-8S404.377,399.25,399.958,399.25z M375.625,151.652V399.25h-96.583V150.875h96.623
		C375.64,151.131,375.625,151.389,375.625,151.652z M183.958,351.742c2.051-0.044,4.043-0.881,5.493-2.332
		c1.49-1.49,2.34-3.55,2.34-5.66c0-2.11-0.85-4.17-2.34-5.66c-1.45-1.451-3.442-2.288-5.493-2.332V295.25h47.333v104h-47.333
		V351.742z M239.292,279.25h-63.333c-4.418,0-8,3.582-8,8v112h-16.5V73.831l56.165-24.942l55.419,24.646V399.25h-15.75v-112
		C247.292,282.832,243.71,279.25,239.292,279.25z M361.578,63.583l20.214,71.292h-102.75V80.19c0.25,0.023,0.5,0.039,0.75,0.039
		c1.524,0,3.042-0.436,4.359-1.292c2.271-1.476,3.642-4,3.642-6.708v-8.646H361.578z M143.625,45.175l63.998-28.42l64.169,28.538
		v14.624l-60.916-27.091c-1.035-0.46-2.143-0.69-3.251-0.69c-1.106,0-2.213,0.229-3.247,0.688l-60.753,26.979V45.175z
		 M131.265,78.816c1.27,0.825,2.725,1.245,4.193,1.275v54.783H33.625l20.214-71.292h73.786v8.526
		C127.625,74.816,128.995,77.34,131.265,78.816z M39.625,150.875h95.833V399.25H39.625V150.875z"/>
	<path d="M207.625,143.016c17.806,0,32.292-14.486,32.292-32.292s-14.486-32.292-32.292-32.292s-32.292,14.486-32.292,32.292
		S189.82,143.016,207.625,143.016z M207.625,94.433c8.983,0,16.292,7.308,16.292,16.292s-7.308,16.292-16.292,16.292
		s-16.292-7.308-16.292-16.292S198.642,94.433,207.625,94.433z"/>
</g>
<g>
</g>
<g>
</g>
<g>
</g>
<g>
</g>
<g>
</g>
<g>
</g>
<g>
</g>
<g>
</g>
<g>
</g>
<g>
</g>
<g>
</g>
<g>
</g>
<g>
</g>
<g>
</g>
<g>
</g>
</svg>
