<?xml version="1.0" encoding="iso-8859-1"?>
<!-- Generator: Adobe Illustrator 17.1.0, SVG Export Plug-In . SVG Version: 6.00 Build 0)  -->
<!DOCTYPE svg PUBLIC "-//W3C//DTD SVG 1.1//EN" "http://www.w3.org/Graphics/SVG/1.1/DTD/svg11.dtd">
<svg version="1.1" id="Capa_1" xmlns="http://www.w3.org/2000/svg" xmlns:xlink="http://www.w3.org/1999/xlink" x="0px" y="0px"
	 viewBox="0 0 447.875 447.875" style="enable-background:new 0 0 447.875 447.875;" xml:space="preserve">
<g>
	<path d="M56.666,371.905h56.125c4.418,0,8-3.582,8-8V284.03c0-4.418-3.582-8-8-8H56.666c-4.418,0-8,3.582-8,8v79.875
		C48.666,368.323,52.248,371.905,56.666,371.905z M64.666,355.905v-23.938h40.125v23.938H64.666z M104.791,292.03v23.938H64.666
		V292.03H104.791z"/>
	<path d="M56.666,251.822h56.125c4.418,0,8-3.582,8-8v-79.875c0-4.418-3.582-8-8-8H56.666c-4.418,0-8,3.582-8,8v79.875
		C48.666,248.24,52.248,251.822,56.666,251.822z M64.666,235.822v-23.938h40.125v23.938H64.666z M104.791,171.947v23.938H64.666
		v-23.938H104.791z"/>
	<path d="M144.541,251.822h56c4.418,0,8-3.582,8-8v-79.875c0-4.418-3.582-8-8-8h-56c-4.418,0-8,3.582-8,8v79.875
		C136.541,248.24,140.123,251.822,144.541,251.822z M152.541,235.822v-23.938h40v23.938H152.541z M192.541,171.947v23.938h-40
		v-23.938H192.541z"/>
	<path d="M439.875,404.155h-8.125v-143.75c0-4.418-3.582-8-8-8H240.291v-84.637l2.982,2.401c1.45,1.167,3.227,1.769,5.019,1.769
		c1.174,0,2.354-0.258,3.453-0.784c2.778-1.329,4.546-4.136,4.546-7.216v-32.135c0-2.421-1.097-4.712-2.982-6.231l-21.684-17.459
		V52.238c0-4.418-3.582-8-8-8h-31.334c-4.418,0-8,3.582-8,8v17.764l-50.315-40.513c-2.918-2.348-7.071-2.358-9.999-0.028
		L3.227,125.543c-1.907,1.518-3.019,3.822-3.019,6.26v32.135c0,3.072,1.759,5.872,4.525,7.206c2.765,1.334,6.053,0.967,8.456-0.946
		l2.852-2.269v236.226H8c-4.418,0-8,3.582-8,8s3.582,8,8,8h431.875c4.418,0,8-3.582,8-8S444.293,404.155,439.875,404.155z
		 M275.481,340.488h108.894v23.667H275.481V340.488z M384.375,324.488H275.481v-24.083h108.894V324.488z M275.481,380.155h108.894
		v22.5H275.481V380.155z M415.75,268.405v134.25h-15.375v-110.25c0-4.418-3.582-8-8-8H267.481c-4.418,0-8,3.582-8,8v110.25h-19.19
		v-134.25H415.75z M200.291,60.238h15.334V95.23l-15.334-12.346V60.238z M16.208,135.662l112.721-89.694l111.362,89.666v11.593
		L133.976,61.623c-2.918-2.348-7.071-2.359-9.999-0.029L16.208,147.349V135.662z M31.931,155.286l96.998-77.184l95.515,76.906
		c-0.098,0.501-0.153,1.018-0.153,1.548v103.849v143.75h-15.75V284.03c0-4.418-3.582-8-8-8h-56c-4.418,0-8,3.582-8,8v120.125h-104.5
		V156.556C32.041,156.122,31.997,155.701,31.931,155.286z M152.541,356.472c2.02-0.065,3.977-0.897,5.407-2.327
		c1.489-1.49,2.34-3.55,2.34-5.66c0-2.1-0.851-4.17-2.34-5.65c-1.43-1.43-3.387-2.271-5.407-2.337V292.03h40v112.125h-40V356.472z"
		/>
</g>
<g>
</g>
<g>
</g>
<g>
</g>
<g>
</g>
<g>
</g>
<g>
</g>
<g>
</g>
<g>
</g>
<g>
</g>
<g>
</g>
<g>
</g>
<g>
</g>
<g>
</g>
<g>
</g>
<g>
</g>
</svg>
