<?xml version="1.0" encoding="iso-8859-1"?>
<!-- Generator: Adobe Illustrator 17.1.0, SVG Export Plug-In . SVG Version: 6.00 Build 0)  -->
<!DOCTYPE svg PUBLIC "-//W3C//DTD SVG 1.1//EN" "http://www.w3.org/Graphics/SVG/1.1/DTD/svg11.dtd">
<svg version="1.1" id="Capa_1" xmlns="http://www.w3.org/2000/svg" xmlns:xlink="http://www.w3.org/1999/xlink" x="0px" y="0px"
	 viewBox="0 0 415.5 415.5" style="enable-background:new 0 0 415.5 415.5;" xml:space="preserve">
<path d="M407.5,391.5h-23.917V182.489c13.87-3.503,24.167-16.083,24.167-31.027v-15.604c0.006-0.132,0.02-0.263,0.02-0.396
	c0-1.716-0.54-3.305-1.459-4.608l-22.727-37.304V40.022c0-4.418-3.582-8-8-8h-55.667V16c0-4.418-3.582-8-8-8H104
	c-4.418,0-8,3.582-8,8v16.022H39.917c-4.418,0-8,3.582-8,8v53.528L8.918,131.3c-0.482,0.792-0.799,1.65-0.982,2.53
	c-0.01,0.048-0.022,0.096-0.031,0.144c-0.037,0.195-0.067,0.391-0.09,0.588c-0.019,0.156-0.03,0.314-0.039,0.473
	c-0.007,0.127-0.018,0.254-0.019,0.381c-0.001,0.039-0.006,0.077-0.006,0.116v15.931c0,14.943,10.297,27.523,24.167,31.027V391.5H8
	c-4.418,0-8,3.582-8,8s3.582,8,8,8h399.5c4.418,0,8-3.582,8-8S411.918,391.5,407.5,391.5z M47.917,182.402
	c6.22-1.643,11.699-5.118,15.833-9.808c5.868,6.657,14.449,10.868,24,10.868s18.132-4.211,24-10.868
	c5.868,6.657,14.449,10.868,24,10.868s18.132-4.211,24-10.868c5.868,6.657,14.449,10.868,24,10.868s18.132-4.211,24-10.868
	c5.868,6.657,14.449,10.868,24,10.868s18.132-4.211,24-10.868c5.868,6.657,14.449,10.868,24,10.868s18.132-4.211,24-10.868
	c5.868,6.657,14.449,10.868,24,10.868s18.132-4.211,24-10.868c4.134,4.69,9.614,8.165,15.833,9.808v113.139H47.917V182.402z
	 M111.899,103.796l-6.165,23.667H76.511l11.286-23.667H111.899z M328.364,103.796l11.286,23.667h-29.223l-6.165-23.667H328.364z
	 M343.75,151.462c0,8.822-7.178,16-16,16s-16-7.178-16-16v-7.931h32V151.462z M295.75,151.462c0,8.822-7.178,16-16,16
	s-16-7.178-16-16v-7.931h32V151.462z M247.75,151.462c0,8.822-7.178,16-16,16s-16-7.178-16-16v-7.931h32V151.462z M199.75,151.462
	c0,8.822-7.178,16-16,16s-16-7.178-16-16v-7.931h32V151.462z M151.75,151.462c0,8.822-7.178,16-16,16s-16-7.178-16-16v-7.931h32
	V151.462z M287.729,103.796l6.165,23.667h-30.305l-1.759-23.667H287.729z M245.786,103.796l1.759,23.667h-31.461v-23.667H245.786z
	 M200.083,127.462h-31.467l1.759-23.667h29.708V127.462z M152.573,127.462h-30.305l6.165-23.667h25.898L152.573,127.462z
	 M71.75,143.532h32v7.931c0,8.822-7.178,16-16,16s-16-7.178-16-16V143.532z M391.75,151.462c0,8.822-7.178,16-16,16s-16-7.178-16-16
	v-7.931h32V151.462z M357.376,127.462l-11.286-23.667h25l14.418,23.667H357.376z M112,24h191.917v32.045H112V24z M96,48.022v16.023
	c0,4.418,3.582,8,8,8h207.917c4.418,0,8-3.582,8-8V48.022h47.667v39.773H47.917V48.022H96z M44.41,103.796h25.662l-11.286,23.667
	H29.992L44.41,103.796z M23.75,151.462v-7.931h32v7.931c0,8.822-7.178,16-16,16S23.75,160.285,23.75,151.462z M47.917,311.542
	h319.667V391.5H47.917V311.542z"/>
<g>
</g>
<g>
</g>
<g>
</g>
<g>
</g>
<g>
</g>
<g>
</g>
<g>
</g>
<g>
</g>
<g>
</g>
<g>
</g>
<g>
</g>
<g>
</g>
<g>
</g>
<g>
</g>
<g>
</g>
</svg>
