<?xml version="1.0" encoding="iso-8859-1"?>
<!-- Generator: Adobe Illustrator 17.1.0, SVG Export Plug-In . SVG Version: 6.00 Build 0)  -->
<!DOCTYPE svg PUBLIC "-//W3C//DTD SVG 1.1//EN" "http://www.w3.org/Graphics/SVG/1.1/DTD/svg11.dtd">
<svg version="1.1" id="Capa_1" xmlns="http://www.w3.org/2000/svg" xmlns:xlink="http://www.w3.org/1999/xlink" x="0px" y="0px"
	 viewBox="0 0 431.917 431.917" style="enable-background:new 0 0 431.917 431.917;" xml:space="preserve">
<path d="M424.067,375.633V48.292c0-4.418-3.582-8-8-8H15.85c-4.418,0-8,3.582-8,8v237.355c-0.132,0.577-0.208,1.174-0.208,1.791
	s0.076,1.214,0.208,1.791v86.404C3.502,375.713,0,379.257,0,383.625c0,4.418,3.582,8,8,8h7.85H95.9c4.418,0,8-3.582,8-8
	c0-0.081-0.01-0.159-0.012-0.24c0.002-0.08,0.012-0.159,0.012-0.24v-15.271h224.042v15.271c0,0.081,0.01,0.159,0.012,0.24
	c-0.002,0.08-0.012,0.159-0.012,0.24c0,4.418,3.582,8,8,8h80.05c0.013,0,0.025-0.002,0.038-0.002s0.025,0.002,0.038,0.002h7.85
	c4.418,0,8-3.582,8-8C431.917,379.257,428.415,375.714,424.067,375.633z M87.9,375.625H23.85v-80.188H87.9V375.625z
	 M263.733,239.958v-39.667h64.209v39.667H263.733z M184.109,239.958v-39.667h63.624v39.667H184.109z M103.9,239.958v-39.667h64.209
	v39.667H103.9z M23.85,239.958v-39.667H87.9v39.667H23.85z M327.942,184.292h-64.209v-40.667h64.209V184.292z M343.942,143.625
	h64.125v40.667h-64.125V143.625z M247.733,184.292h-63.624v-40.667h63.624V184.292z M168.109,184.292H103.9v-40.667h64.209V184.292z
	 M87.9,184.292H23.85v-40.667H87.9V184.292z M343.942,200.292h64.125v39.667h-64.125V200.292z M408.067,127.625h-64.125v-39.5
	h64.125V127.625z M327.942,127.625h-64.209v-39.5h64.209V127.625z M247.733,127.625h-63.624v-39.5h63.624V127.625z M168.109,127.625
	H103.9v-39.5h64.209V127.625z M87.9,127.625H23.85v-39.5H87.9V127.625z M23.85,279.438v-23.479h384.217v23.479H23.85z
	 M343.942,295.438h64.125v80.188h-64.125V295.438z M408.067,56.292v15.833H23.85V56.292H408.067z M103.9,351.875v-56.438h224.042
	v56.438H103.9z"/>
<g>
</g>
<g>
</g>
<g>
</g>
<g>
</g>
<g>
</g>
<g>
</g>
<g>
</g>
<g>
</g>
<g>
</g>
<g>
</g>
<g>
</g>
<g>
</g>
<g>
</g>
<g>
</g>
<g>
</g>
</svg>
