<?xml version="1.0" encoding="iso-8859-1"?>
<!-- Generator: Adobe Illustrator 17.1.0, SVG Export Plug-In . SVG Version: 6.00 Build 0)  -->
<!DOCTYPE svg PUBLIC "-//W3C//DTD SVG 1.1//EN" "http://www.w3.org/Graphics/SVG/1.1/DTD/svg11.dtd">
<svg version="1.1" id="Capa_1" xmlns="http://www.w3.org/2000/svg" xmlns:xlink="http://www.w3.org/1999/xlink" x="0px" y="0px"
	 viewBox="0 0 441.489 441.489" style="enable-background:new 0 0 441.489 441.489;" xml:space="preserve">
<g>
	<path d="M116.745,321.864H76.62c-4.418,0-8,3.582-8,8v63.625c0,4.418,3.582,8,8,8h40.125c4.418,0,8-3.582,8-8v-63.625
		C124.745,325.446,121.163,321.864,116.745,321.864z M108.745,337.864v15.813H84.62v-15.813H108.745z M84.62,385.489v-15.813h24.125
		v15.813H84.62z"/>
	<path d="M116.745,226.197H76.62c-4.418,0-8,3.582-8,8v63.625c0,4.418,3.582,8,8,8h40.125c4.418,0,8-3.582,8-8v-63.625
		C124.745,229.779,121.163,226.197,116.745,226.197z M108.745,242.197v15.813H84.62v-15.813H108.745z M84.62,289.822V274.01h24.125
		v15.813H84.62z"/>
	<path d="M188.62,321.864h-40.125c-4.418,0-8,3.582-8,8v63.625c0,4.418,3.582,8,8,8h40.125c4.418,0,8-3.582,8-8v-63.625
		C196.62,325.446,193.038,321.864,188.62,321.864z M180.62,337.864v15.813h-24.125v-15.813H180.62z M156.495,385.489v-15.813h24.125
		v15.813H156.495z"/>
	<path d="M188.62,226.197h-40.125c-4.418,0-8,3.582-8,8v63.625c0,4.418,3.582,8,8,8h40.125c4.418,0,8-3.582,8-8v-63.625
		C196.62,229.779,193.038,226.197,188.62,226.197z M180.62,242.197v15.813h-24.125v-15.813H180.62z M156.495,289.822V274.01h24.125
		v15.813H156.495z"/>
	<path d="M324.807,74.164h-40.125c-4.418,0-8,3.582-8,8v63.625c0,4.418,3.582,8,8,8h40.125c4.418,0,8-3.582,8-8V82.164
		C332.807,77.746,329.225,74.164,324.807,74.164z M316.807,90.164v15.813h-24.125V90.164H316.807z M292.682,137.789v-15.813h24.125
		v15.813H292.682z"/>
	<path d="M413.078,425.489h-8.333V210.544c0-0.027-0.004-0.052-0.004-0.079c0.048,0.001,0.096,0.011,0.144,0.011
		c2.472,0,4.908-1.141,6.475-3.292c2.601-3.572,1.813-8.576-1.759-11.176l-44.855-32.656V59.778
		c0.109,0.004,0.217,0.025,0.326,0.025c2.472,0,4.908-1.141,6.475-3.292c2.601-3.571,1.813-8.575-1.759-11.176L309.621,1.533
		c-2.806-2.042-6.606-2.043-9.412-0.004l-60.167,43.728c-3.574,2.598-4.366,7.601-1.769,11.175c1.634,2.249,4.221,3.393,6.805,3.288
		v17.002l-19.125-14.412c-2.81-2.118-6.673-2.15-9.518-0.083l-61.524,44.714l-21.316-15.518c-2.804-2.042-6.605-2.044-9.412-0.004
		l-99.808,72.538c-2.071,1.505-3.297,3.911-3.297,6.471v33.169c0,3.009,1.688,5.763,4.369,7.128
		c2.681,1.365,5.901,1.112,8.334-0.657l2.962-2.153v217.571h-8.333c-4.418,0-8,3.582-8,8s3.582,8,8,8h384.667c4.418,0,8-3.582,8-8
		S417.496,425.489,413.078,425.489z M332.953,394.256c1.672-0.258,3.249-1.034,4.452-2.237c1.489-1.49,2.34-3.55,2.34-5.65
		c0-2.11-0.851-4.17-2.34-5.66c-1.203-1.203-2.78-1.979-4.452-2.238v-40.607h23.625v87.625h-23.625V394.256z M364.578,321.864
		h-39.625c-4.418,0-8,3.582-8,8v95.625h-88.208V211.72c1.222-0.007,2.449-0.292,3.579-0.867c0.219-0.112,0.421-0.247,0.627-0.376
		h155.797c0,0.023-0.003,0.045-0.003,0.068v214.945h-16.167v-95.625C372.578,325.446,368.996,321.864,364.578,321.864z
		 M261.078,58.143h87.667v111.667h-87.667V58.143z M304.908,17.893l33.308,24.25h-66.675L304.908,17.893z M221.052,78.652
		l24.025,18.104v81.053c0,4.418,3.582,8,8,8h103.667c2.8,0,5.26-1.441,6.689-3.619l16.875,12.286H236.695v-23.922
		c0-2.558-1.224-4.962-3.291-6.468l-64.896-47.246L221.052,78.652z M37.08,174.505l91.804-66.721l91.812,66.841v13.378
		l-87.099-63.41c-1.403-1.022-3.056-1.532-4.708-1.532c-1.65,0-3.301,0.51-4.703,1.529L37.08,187.895V174.505z M52.745,196.289
		l76.139-55.336l83.861,61.053v223.482h-160V196.289z"/>
	<path d="M293.203,226.197h-40.125c-4.418,0-8,3.582-8,8v63.625c0,4.418,3.582,8,8,8h40.125c4.418,0,8-3.582,8-8v-63.625
		C301.203,229.779,297.621,226.197,293.203,226.197z M285.203,242.197v15.813h-24.125v-15.813H285.203z M261.078,289.822V274.01
		h24.125v15.813H261.078z"/>
	<path d="M293.203,321.864h-40.125c-4.418,0-8,3.582-8,8v63.625c0,4.418,3.582,8,8,8h40.125c4.418,0,8-3.582,8-8v-63.625
		C301.203,325.446,297.621,321.864,293.203,321.864z M285.203,337.864v15.813h-24.125v-15.813H285.203z M261.078,385.489v-15.813
		h24.125v15.813H261.078z"/>
	<path d="M373.078,234.197c0-4.418-3.582-8-8-8h-40.125c-4.418,0-8,3.582-8,8v63.625c0,4.418,3.582,8,8,8h40.125
		c4.418,0,8-3.582,8-8V234.197z M357.078,242.197v15.813h-24.125v-15.813H357.078z M332.953,289.822V274.01h24.125v15.813H332.953z"
		/>
</g>
<g>
</g>
<g>
</g>
<g>
</g>
<g>
</g>
<g>
</g>
<g>
</g>
<g>
</g>
<g>
</g>
<g>
</g>
<g>
</g>
<g>
</g>
<g>
</g>
<g>
</g>
<g>
</g>
<g>
</g>
</svg>
