<?xml version="1.0"?>
<svg xmlns="http://www.w3.org/2000/svg" id="Outline" viewBox="0 0 512 512" width="512" height="512"><path d="M328,464a8,8,0,0,0,0-16H264a8,8,0,0,0,0,16Z"/><path d="M24,464H88a8,8,0,0,0,0-16H24a8,8,0,0,0,0,16Z"/><path d="M224,480a8,8,0,0,0,0,16h32a8,8,0,0,0,0-16Z"/><path d="M56,488a8,8,0,0,0,8,8H176a8,8,0,0,0,0-16H64A8,8,0,0,0,56,488Z"/><path d="M472.833,202.217C459.655,195.628,442.313,192,424,192a133.936,133.936,0,0,0-16.323.99l45.98-45.981a8,8,0,0,0,0-11.313c-8.3-8.3-21.595-9.96-37.442-4.678-13.976,4.659-28.8,14.356-41.754,27.305q-3.387,3.387-6.461,6.936V104a8,8,0,0,0-8-8c-11.736,0-22.313,8.228-29.783,23.167C323.628,132.345,320,149.687,320,168a128.6,128.6,0,0,0,2.718,26.721A129.142,129.142,0,0,0,296,192c-18.313,0-35.655,3.628-48.833,10.217C232.228,209.687,224,220.264,224,232a8,8,0,0,0,8,8h55.535c-17.06,24.332-20.651,48.845-7.839,61.657a8,8,0,0,0,11.313,0l40.764-40.764A23.96,23.96,0,0,0,368,265.869c.36.322.731.631,1.109.932,9.38,23.343,14.707,49.954,15.547,77.49-19.536,1.469-38.352,8.771-54.812,21.367-1,.766-1.988,1.556-2.967,2.357-44.939.3-85.4,18.523-107.032,47.985H24v16H360c32.051,0,56,12.671,56,24s-23.949,24-56,24a8,8,0,0,0,0,16c18.313,0,35.655-3.628,48.833-10.217C423.772,478.313,432,467.736,432,456c0-8.968-4.819-17.255-13.752-24H488a8,8,0,0,0,7.408-11.02c-9.206-22.585-23.471-41.715-41.252-55.322A107.989,107.989,0,0,0,430.811,352H432c0-40.181-8.012-78.611-23.25-112H488a8,8,0,0,0,8-8C496,220.264,487.772,209.687,472.833,202.217ZM352,115.737v72.989a81.176,81.176,0,0,0-5.71,14.26c-.485-.257-.957-.519-1.457-.769-1.313-.657-2.678-1.275-4.071-1.872A106.939,106.939,0,0,1,336,168C336,143.455,343.431,123.661,352,115.737ZM329.046,240.993l-41.079,41.078c-.46-10.125,6.01-26.1,19.885-42.071h21.524C329.26,240.328,329.148,240.658,329.046,240.993ZM243.737,224c7.924-8.569,27.718-16,52.263-16s44.339,7.431,52.263,16ZM352,256a8,8,0,1,1,8-8A8.009,8.009,0,0,1,352,256Zm8.5-43.368c1.886-12.752,11.441-29.166,25.27-42.995,17.357-17.358,36.594-26.108,48.27-25.642L376.419,201.62c-.417.2-.842.392-1.252.6A53.186,53.186,0,0,0,360.5,212.632ZM384,256a8,8,0,1,1,8-8A8.009,8.009,0,0,1,384,256ZM290.741,416H240.989c16.533-16.258,41.331-27.394,68.795-30.852A137.934,137.934,0,0,0,290.741,416Zm153.692-37.636A112.675,112.675,0,0,1,475.493,416H308.507a112.675,112.675,0,0,1,31.06-37.636C355.267,366.35,373.4,360,392,360S428.733,366.35,444.433,378.364Zm-28.5-31.386a98.117,98.117,0,0,0-15.263-2.586,249.179,249.179,0,0,0-12.7-72.726,23.97,23.97,0,0,0,13.442-7.168A259.817,259.817,0,0,1,415.93,346.978ZM371.737,224c7.924-8.569,27.718-16,52.263-16s44.339,7.431,52.263,16Z"/><path d="M216,448H136a8,8,0,0,0,0,16h80a8,8,0,0,0,0-16Z"/><path d="M144,64a40,40,0,1,0,40,40A40.045,40.045,0,0,0,144,64Zm0,64a24,24,0,1,1,24-24A24.028,24.028,0,0,1,144,128Z"/><path d="M152,40V24a8,8,0,0,0-16,0V40a8,8,0,0,0,16,0Z"/><path d="M232,104a8,8,0,0,0-8-8H208a8,8,0,0,0,0,16h16A8,8,0,0,0,232,104Z"/><path d="M152,184V168a8,8,0,0,0-16,0v16a8,8,0,0,0,16,0Z"/><path d="M56,104a8,8,0,0,0,8,8H80a8,8,0,0,0,0-16H64A8,8,0,0,0,56,104Z"/><path d="M104.4,53.088,93.088,41.775A8,8,0,0,0,81.775,53.088L93.088,64.4A8,8,0,1,0,104.4,53.088Z"/><path d="M194.912,64.4l11.313-11.314a8,8,0,0,0-11.313-11.313L183.6,53.088A8,8,0,0,0,194.912,64.4Z"/><path d="M194.912,166.225a8,8,0,0,0,11.313-11.313L194.912,143.6A8,8,0,1,0,183.6,154.912Z"/><path d="M81.775,154.912a8,8,0,1,0,11.313,11.313L104.4,154.912A8,8,0,1,0,93.088,143.6Z"/><path d="M120,272a8.009,8.009,0,0,1,8,8,8,8,0,0,0,16,0,8,8,0,0,1,16,0,8,8,0,0,0,16,0,23.988,23.988,0,0,0-40-17.874A23.988,23.988,0,0,0,96,280a8,8,0,0,0,16,0A8.009,8.009,0,0,1,120,272Z"/><path d="M32,328a8,8,0,0,0,16,0,8,8,0,0,1,16,0,8,8,0,0,0,16,0,8,8,0,0,1,16,0,8,8,0,0,0,16,0,23.988,23.988,0,0,0-40-17.874A23.988,23.988,0,0,0,32,328Z"/></svg>
