<?xml version="1.0" encoding="iso-8859-1"?>
<!-- Generator: Adobe Illustrator 19.0.0, SVG Export Plug-In . SVG Version: 6.00 Build 0)  -->
<svg version="1.1" id="Capa_1" xmlns="http://www.w3.org/2000/svg" xmlns:xlink="http://www.w3.org/1999/xlink" x="0px" y="0px"
	 viewBox="0 0 512.043 512.043" style="enable-background:new 0 0 512.043 512.043;" xml:space="preserve">
<g>
	<g>
		<g>
			<path d="M473.21,0.021H200.923c-22.457,1.146-39.78,20.202-38.787,42.667v349.867c0,0.128,0.067,0.234,0.073,0.36
				c0.028,0.964,0.22,1.917,0.569,2.816l0.053,0.18l0.014,0.048l20.196,46.408c2.47,5.928,8.221,9.825,14.642,9.921h7.121v34.133
				c0.029,2.914,0.561,5.801,1.573,8.533H102.402v-153.6c-0.015-14.132-11.468-25.585-25.6-25.6V170.095
				c35.76-4.505,61.856-36.034,59.599-72.006c-2.257-35.972-32.09-63.992-68.133-63.992S2.393,62.117,0.136,98.089
				c-2.257,35.972,23.839,67.501,59.599,72.006v145.659c-14.132,0.015-25.585,11.468-25.6,25.6v153.6h-25.6
				c-4.713,0-8.533,3.82-8.533,8.533s3.82,8.533,8.533,8.533h494.933c4.713,0,8.533-3.821,8.533-8.533s-3.82-8.533-8.533-8.533
				h-35.706c1.012-2.733,1.544-5.62,1.572-8.533v-34.133h7.117c6.418-0.098,12.167-3.99,14.642-9.912l20.2-46.417l0.014-0.045
				c0.026-0.061,0.031-0.128,0.056-0.19c0.35-0.902,0.543-1.857,0.569-2.824c0.005-0.121,0.07-0.223,0.07-0.345V42.688
				C512.994,20.222,495.669,1.166,473.21,0.021z M17.069,102.421c0-28.277,22.923-51.2,51.2-51.2s51.2,22.923,51.2,51.2
				s-22.923,51.2-51.2,51.2C40.004,153.59,17.1,130.685,17.069,102.421z M85.335,494.955H51.202v-153.6
				c0.006-4.71,3.823-8.527,8.533-8.533h17.067c4.71,0.006,8.527,3.823,8.533,8.533V494.955z M256.002,486.421
				c-0.006,4.71-3.823,8.527-8.533,8.533h-17.067c-4.71-0.006-8.527-3.823-8.533-8.533v-34.133h34.133V486.421z M271.496,494.955
				c1.012-2.733,1.544-5.62,1.572-8.533v-34.133h128v34.133c0.029,2.914,0.561,5.801,1.573,8.533H271.496z M452.269,486.421
				c-0.005,4.711-3.822,8.529-8.533,8.533h-17.067c-4.711-0.005-8.529-3.822-8.533-8.533v-34.133h34.133V486.421z M475.594,435.221
				h-277.05l-14.854-34.133h306.763L475.594,435.221z M298.669,384.021v-17.067c0.006-4.71,3.823-8.527,8.533-8.533h59.733
				c4.71,0.006,8.527,3.823,8.533,8.533v17.067H298.669z M494.935,42.688v341.333h-102.4v-17.067
				c-0.015-14.132-11.468-25.585-25.6-25.6h-59.733c-14.132,0.015-25.585,11.468-25.6,25.6v17.067h-102.4V42.688
				c-0.965-13.033,8.705-24.43,21.721-25.6H473.21C486.227,18.258,495.899,29.654,494.935,42.688z"/>
			<path d="M452.269,34.155h-230.4c-14.132,0.015-25.585,11.468-25.6,25.6v8.533c0.015,14.132,11.468,25.585,25.6,25.6h230.4
				c14.132-0.015,25.585-11.468,25.6-25.6v-8.533C477.853,45.623,466.401,34.17,452.269,34.155z M460.802,68.288
				c-0.005,4.711-3.823,8.529-8.533,8.533h-230.4c-4.71-0.006-8.527-3.823-8.533-8.533v-8.533c0.006-4.71,3.823-8.527,8.533-8.533
				h230.4c4.711,0.005,8.529,3.822,8.533,8.533V68.288z"/>
			<path d="M230.402,298.688c-18.851,0-34.133,15.282-34.133,34.133c0.022,18.842,15.291,34.112,34.133,34.133
				c18.851,0,34.133-15.282,34.133-34.133C264.535,313.97,249.253,298.688,230.402,298.688z M230.402,349.888
				c-9.426,0-17.067-7.641-17.067-17.067c0.009-9.422,7.645-17.057,17.067-17.067c9.426,0,17.067,7.641,17.067,17.067
				C247.469,342.247,239.828,349.888,230.402,349.888z"/>
			<path d="M443.735,298.688c-18.851,0-34.133,15.282-34.133,34.133c0,18.851,15.282,34.133,34.133,34.133
				c18.851,0,34.133-15.282,34.133-34.133C477.849,313.978,462.578,298.708,443.735,298.688z M443.735,349.888
				c-9.426,0-17.067-7.641-17.067-17.067c0-9.426,7.641-17.067,17.067-17.067s17.067,7.641,17.067,17.067
				C460.791,342.242,453.157,349.877,443.735,349.888z"/>
			<path d="M452.269,110.955h-230.4c-14.132,0.015-25.585,11.468-25.6,25.6v119.467c0.015,14.132,11.468,25.585,25.6,25.6h230.4
				c14.132-0.015,25.585-11.468,25.6-25.6V136.555C477.853,122.423,466.401,110.97,452.269,110.955z M460.802,256.021
				c-0.005,4.711-3.823,8.529-8.533,8.533h-230.4c-4.71-0.006-8.527-3.823-8.533-8.533V136.555c0.006-4.71,3.823-8.527,8.533-8.533
				h230.4c4.711,0.005,8.529,3.822,8.533,8.533V256.021z"/>
		</g>
	</g>
</g>
<g>
</g>
<g>
</g>
<g>
</g>
<g>
</g>
<g>
</g>
<g>
</g>
<g>
</g>
<g>
</g>
<g>
</g>
<g>
</g>
<g>
</g>
<g>
</g>
<g>
</g>
<g>
</g>
<g>
</g>
</svg>
