<?xml version="1.0"?>
<svg xmlns="http://www.w3.org/2000/svg" viewBox="0 0 64 64" width="512" height="512"><g id="service_shop-repair-modify-store-restore" data-name="service shop-repair-modify-store-restore"><path d="M34,54H50a3,3,0,0,0,3-3V37a3,3,0,0,0-3-3H34a3,3,0,0,0-3,3V51A3,3,0,0,0,34,54ZM33,37a1,1,0,0,1,1-1H50a1,1,0,0,1,1,1V51a1,1,0,0,1-1,1H34a1,1,0,0,1-1-1Z"/><path d="M47,43h2V39a1,1,0,0,0-1-1H44v2h3Z"/><rect x="22" y="47" width="2" height="2"/><path d="M59,56H57V31.9A5.017,5.017,0,0,0,61,27a.66.66,0,0,0-.01-.14L59.23,14.58A3,3,0,0,0,56.27,12H49V5a3.009,3.009,0,0,0-3-3H18a3.009,3.009,0,0,0-3,3v7H7.73a3,3,0,0,0-2.96,2.58L3.01,26.86A.66.66,0,0,0,3,27a5.017,5.017,0,0,0,4,4.9V56H5a3,3,0,0,0,0,6H59a3,3,0,0,0,0-6ZM53,14h3.27a1.009,1.009,0,0,1,.99.86L59,27.07A3,3,0,0,1,53,27Zm-4,9V14h2V27a3,3,0,0,1-6,0V26h1A3.009,3.009,0,0,0,49,23ZM17,5a1,1,0,0,1,1-1H46a1,1,0,0,1,1,1V23a1,1,0,0,1-1,1H42V17.1l.98-4.9a.9.9,0,0,0,0-.4l-1-5A1,1,0,0,0,41,6H37a1,1,0,0,0-.98.8l-1,5a.9.9,0,0,0,0,.4L36,17.1V24H29V19.32a6.989,6.989,0,0,0-.67-12.91,1.01,1.01,0,0,0-.91.12,1.028,1.028,0,0,0-.42.82V12H25V7.35a1.028,1.028,0,0,0-.42-.82,1.014,1.014,0,0,0-.91-.12A6.989,6.989,0,0,0,23,19.32V24H18a1,1,0,0,1-1-1ZM37.82,16l-.8-4,.8-4h2.36l.8,4-.8,4ZM40,18v6H38V18Zm3,8v1a3,3,0,0,1-6,0V26ZM25,24V18.65a1,1,0,0,0-.67-.94A5,5,0,0,1,23,9v4a1,1,0,0,0,1,1h4a1,1,0,0,0,1-1V9a5,5,0,0,1-1.33,8.71,1,1,0,0,0-.67.94V24Zm2,2v1a3,3,0,0,1-6,0V26Zm2,0h6v1a3,3,0,0,1-6,0ZM13,14h2v9a3.009,3.009,0,0,0,3,3h1v1a3,3,0,0,1-6,0ZM12,30a5,5,0,0,0,8,0,5,5,0,0,0,8,0,5,5,0,0,0,8,0,5,5,0,0,0,8,0,5,5,0,0,0,8,0,4.994,4.994,0,0,0,3,1.89V56H27V42a8,8,0,0,0-16,0V56H9V31.89A4.994,4.994,0,0,0,12,30ZM25,42V56H13V42a6,6,0,0,1,12,0ZM5,27.07,6.74,14.86A1.009,1.009,0,0,1,7.73,14H11V27a3,3,0,0,1-6,.07ZM59,60H5a1,1,0,0,1,0-2H59a1,1,0,0,1,0,2Z"/></g></svg>
