<?xml version="1.0" encoding="iso-8859-1"?>
<!-- Generator: Adobe Illustrator 19.0.0, SVG Export Plug-In . SVG Version: 6.00 Build 0)  -->
<svg version="1.1" id="Capa_1" xmlns="http://www.w3.org/2000/svg" xmlns:xlink="http://www.w3.org/1999/xlink" x="0px" y="0px"
	 viewBox="0 0 218.453 218.453" style="enable-background:new 0 0 218.453 218.453;" xml:space="preserve">
<g>
	<g>
		<path d="M215.04,44.373H3.413C1.529,44.373,0,45.903,0,47.787v122.88c0,1.884,1.529,3.413,3.413,3.413H215.04
			c1.884,0,3.413-1.529,3.413-3.413V47.787C218.453,45.903,216.924,44.373,215.04,44.373z M211.627,167.253H6.827V51.2h204.8
			V167.253z"/>
	</g>
</g>
<g>
	<g>
		<path d="M109.227,44.373c-1.884,0-3.413,1.529-3.413,3.413v122.88c0,1.884,1.529,3.413,3.413,3.413s3.413-1.529,3.413-3.413
			V47.787C112.64,45.903,111.111,44.373,109.227,44.373z"/>
	</g>
</g>
<g>
	<g>
		<path d="M109.227,78.507c-16.939,0-30.72,13.781-30.72,30.72s13.781,30.72,30.72,30.72s30.72-13.781,30.72-30.72
			S126.165,78.507,109.227,78.507z M109.227,133.12c-13.175,0-23.893-10.718-23.893-23.893s10.718-23.893,23.893-23.893
			s23.893,10.718,23.893,23.893S122.402,133.12,109.227,133.12z"/>
	</g>
</g>
<g>
	<g>
		<path d="M30.72,75.093H3.413C1.529,75.093,0,76.622,0,78.507v61.44c0,1.884,1.529,3.413,3.413,3.413H30.72
			c1.884,0,3.413-1.529,3.413-3.413v-61.44C34.133,76.622,32.604,75.093,30.72,75.093z M27.307,136.533H6.827V81.92h20.48V136.533z"
			/>
	</g>
</g>
<g>
	<g>
		<path d="M215.04,75.093h-27.307c-1.884,0-3.413,1.529-3.413,3.413v61.44c0,1.884,1.529,3.413,3.413,3.413h27.307
			c1.884,0,3.413-1.529,3.413-3.413v-61.44C218.453,76.622,216.924,75.093,215.04,75.093z M211.627,136.533h-20.48V81.92h20.48
			V136.533z"/>
	</g>
</g>
<g>
</g>
<g>
</g>
<g>
</g>
<g>
</g>
<g>
</g>
<g>
</g>
<g>
</g>
<g>
</g>
<g>
</g>
<g>
</g>
<g>
</g>
<g>
</g>
<g>
</g>
<g>
</g>
<g>
</g>
</svg>
